<svg id="_7123940_wear_os_google_icon" data-name="7123940_wear_os_google_icon" xmlns="http://www.w3.org/2000/svg" width="36.874" height="28.179" viewBox="0 0 36.874 28.179">
  <ellipse id="Ellipse_1" data-name="Ellipse 1" cx="3.823" cy="3.823" rx="3.823" ry="3.823" transform="translate(25.216 7.665)" fill="#00a94b"/>
  <ellipse id="Ellipse_2" data-name="Ellipse 2" cx="3.572" cy="3.572" rx="3.572" ry="3.572" transform="translate(29.73 0.058)" fill="#ff4131"/>
  <path id="Path_1" data-name="Path 1" d="M153.605,28.244a3.577,3.577,0,0,1-3.266-2.12L140.973,5.091a3.574,3.574,0,0,1,6.532-2.9l9.366,21.032a3.573,3.573,0,0,1-1.814,4.718A3.525,3.525,0,0,1,153.605,28.244Z" transform="translate(-129.622 -0.064)" fill="#ffbc00"/>
  <path id="Path_2" data-name="Path 2" d="M12.944,28.7a3.894,3.894,0,0,1-3.556-2.308L.351,6.086a3.889,3.889,0,1,1,7.1-3.164l9.036,20.3A3.891,3.891,0,0,1,12.944,28.7Z" transform="translate(-0.015 -0.572)" fill="#0085f7"/>
</svg>
