<svg xmlns="http://www.w3.org/2000/svg" width="29.234" height="27.165" viewBox="0 0 29.234 27.165">
  <path id="Vector" d="M29.194,12.061v2.818c0,5.749,0,8.679-1.8,10.483s-4.621,1.8-10.37,1.8H12.174c-5.749,0-8.567,0-10.37-1.8S0,20.74,0,14.992V12.174C0,6.425,0,3.607,1.916,1.8,3.72,0,6.538,0,12.286,0h4.847C22.769,0,25.7,0,27.391,1.691,29.307,3.382,29.307,6.425,29.194,12.061ZM8.717,6.425A2.073,2.073,0,0,0,6.575,4.283,2.14,2.14,0,0,0,4.434,6.425,2.011,2.011,0,0,0,6.575,8.567,2.073,2.073,0,0,0,8.717,6.425Zm15.63,13.263-2.067-2.067,1.653-.864a1.258,1.258,0,0,0,.827-1.165,1.223,1.223,0,0,0-.827-1.165l-8.642-3.269a1.275,1.275,0,0,0-1.728,1.24c.038.15.075.263.113.413l3.382,8.642a1.212,1.212,0,0,0,2.292,0L20.1,19.8l2.067,2.066a1.479,1.479,0,0,0,2.179,0,1.54,1.54,0,0,0,.488-1.127,1.281,1.281,0,0,0-.488-1.052Z" fill="#0085f7"/>
</svg>
