<svg xmlns="http://www.w3.org/2000/svg" width="54.105" height="54.105" viewBox="0 0 54.105 54.105">
  <path id="Vector" d="M54.1,27.052A27.052,27.052,0,1,1,27.052,0,26.988,26.988,0,0,1,54.1,27.052Zm-41.03-9.581a.6.6,0,0,0,.451.564,4.676,4.676,0,0,1,3.382,3.382s.113.338.789.225a.5.5,0,0,0,.451-.338,4.676,4.676,0,0,1,3.382-3.382.562.562,0,0,0,.338-.564.414.414,0,0,0-.113-.338.349.349,0,0,0-.225-.113,4.676,4.676,0,0,1-3.382-3.382.562.562,0,0,0-.564-.338c-.113,0-.225.113-.338.113l-.113.113a.349.349,0,0,0-.113.225,4.676,4.676,0,0,1-3.382,3.382.349.349,0,0,0-.225.113ZM40.917,37.535a.488.488,0,0,0-.225-.451,7.236,7.236,0,0,1-1.465-1.127A4.649,4.649,0,0,1,38.1,34.492a.564.564,0,0,0-.9,0,7.236,7.236,0,0,1-1.127,1.465A4.649,4.649,0,0,1,34.6,37.084a.488.488,0,0,0-.225.451.414.414,0,0,0,.113.338.11.11,0,0,0,.113.113,7.236,7.236,0,0,1,1.465,1.127A4.649,4.649,0,0,1,37.2,40.579a.77.77,0,0,0,.451.451c.225,0,.225-.113.338-.113a.349.349,0,0,0,.113-.225,7.236,7.236,0,0,1,1.127-1.465A4.649,4.649,0,0,1,40.691,38.1s.225-.113.225-.564ZM40.8,27.052a1.2,1.2,0,0,0-1.014-1.127,45.451,45.451,0,0,1-6.087-2.48,7.21,7.21,0,0,1-2.818-2.705c-1.014-1.24-2.705-6.425-2.705-6.425a1.133,1.133,0,0,0-2.254,0,45.451,45.451,0,0,1-2.48,6.087A7.21,7.21,0,0,1,20.74,23.22c-1.24,1.014-6.425,2.705-6.425,2.705a1.435,1.435,0,0,0-1.014,1.24,1.2,1.2,0,0,0,1.014,1.127,45.451,45.451,0,0,1,6.087,2.48,7.21,7.21,0,0,1,2.818,2.705c1.014,1.24,2.705,6.425,2.705,6.425a1.435,1.435,0,0,0,1.24,1.014A1.2,1.2,0,0,0,28.292,39.9a45.451,45.451,0,0,1,2.48-6.087A7.21,7.21,0,0,1,33.477,31c1.24-1.014,6.425-2.705,6.425-2.705.676-.225,1.014-.676.9-1.24Z" fill="#fff"/>
</svg>
