<svg xmlns="http://www.w3.org/2000/svg" width="479.115" height="397.32" viewBox="0 0 479.115 397.32">
  <path id="Path_589" data-name="Path 589" d="M63.007-51.66a32.27,32.27,0,0,0,18.08,5.88,26.121,26.121,0,0,0,15.14-4.62q11.353-9.233,16.4-18.26t10.513-30.02L179.858-315H241.92L185.64-98.7Q173.88-53.76,151.2-23.94,139.44-11.76,117.81-3.99A132.536,132.536,0,0,1,72.66,3.78,107.07,107.07,0,0,1,37.8-1.68Q-6.72-12.18-6.72-61.74a103.643,103.643,0,0,1,2.94-25.2l33.593-111.3,14.707-56.7q-14.7,8.82-34.02,8.82a107.471,107.471,0,0,1-13.02-.82l10.493-39.5H18.467q27.28,0,41.554-28.56h62.121L92.1-198.194,59.64-84.84a91.064,91.064,0,0,0-1.68,15.96Q57.96-54.18,63.007-51.66ZM435.96,29.82a21.972,21.972,0,0,0,18.48-7.98l12.6,37.8q-18.447,21-55.342,22.68-23.894,0-37.734-15.133-9.22-10.087-17.187-32.36A356.562,356.562,0,0,1,345.457-.059l-25.207-92.2L256.522,0H182.7L298.745-169.339l-26.854-98.241Q250-245.7,213.393-245.7a115.955,115.955,0,0,1-16.833-1.234l10.5-39.506h10.5q27.3,0,41.16-28.56h65.52l21.026,77.792L398.573-315H472.4L366.483-160.453,410.34,0Q415.38,28.14,435.96,29.82Zm2.94-316.26Z" transform="translate(6.72 315)" fill="#0085f7"/>
</svg>
