<svg xmlns="http://www.w3.org/2000/svg" width="23.33" height="20" viewBox="0 0 23.33 20">
  <path id="heart" d="M11.665,20a.779.779,0,0,1-.573-.235L2.968,11.927a4.314,4.314,0,0,1-.358-.338q-.227-.234-.723-.853A11.5,11.5,0,0,1,1,9.466a7.914,7.914,0,0,1-.7-1.576A5.683,5.683,0,0,1,0,6.094,5.973,5.973,0,0,1,1.653,1.614,6.262,6.262,0,0,1,6.223,0,5.185,5.185,0,0,1,7.87.28a6.687,6.687,0,0,1,1.563.755q.723.475,1.243.892a12.268,12.268,0,0,1,.99.885,11.98,11.98,0,0,1,.99-.885q.521-.417,1.244-.892A6.671,6.671,0,0,1,15.461.28,5.187,5.187,0,0,1,17.107,0a6.262,6.262,0,0,1,4.57,1.614A5.973,5.973,0,0,1,23.33,6.094q0,2.878-2.981,5.859l-8.111,7.813a.779.779,0,0,1-.573.235Z" transform="translate(0)" fill="#d62828"/>
</svg>
