<svg id="profile" xmlns="http://www.w3.org/2000/svg" width="28.563" height="28.563" viewBox="0 0 28.563 28.563">
  <path id="Path_47" data-name="Path 47" d="M15.782,1.5A14.282,14.282,0,1,0,30.063,15.782,14.281,14.281,0,0,0,15.782,1.5ZM4.1,15.782a11.638,11.638,0,0,0,2.477,7.2c2.613,2.385,4.907,4.58,9.208,4.49,3.831-.086,7.045-2.759,9.293-4.6A11.685,11.685,0,1,0,4.1,15.782ZM15.782,27.467Z" transform="translate(-1.5 -1.5)" fill="#0085f7" fill-rule="evenodd"/>
  <g id="icons" transform="translate(6.667 7.239)">
    <g id="user" transform="translate(0 0)">
      <ellipse id="Ellipse_1" data-name="Ellipse 1" cx="4.166" cy="4.166" rx="4.166" ry="4.166" transform="translate(3.449)" fill="#0085f7"/>
      <path id="Path_53" data-name="Path 53" d="M17.049,20.044A9.387,9.387,0,0,0,13.4,14.93a1.141,1.141,0,0,0-1.368.122,3.388,3.388,0,0,1-2.433,1.1,3.388,3.388,0,0,1-2.433-1.1,1.138,1.138,0,0,0-1.368,0,9.387,9.387,0,0,0-3.649,5.114c-.532,1.583.3,3.409,1.444,3.409H15.6C16.745,23.575,17.581,21.749,17.049,20.044Z" transform="translate(-1.984 -3.938)" fill="#0085f7"/>
    </g>
  </g>
</svg>
