<?xml version="1.0" encoding="UTF-8" standalone="no"?> <svg width="64" height="64" viewBox="0 0 64 64" fill="none" xmlns="http://www.w3.org/2000/svg">
<path d="M61.4099 19.82L49.9099 8.31005C49.6898 8.09236 49.4222 7.92872 49.1282 7.83202C48.8341 7.73532 48.5216 7.7082 48.2153 7.75279C47.909 7.79738 47.6172 7.91247 47.3629 8.08899C47.1086 8.26551 46.8988 8.49865 46.7499 8.77005C46.574 9.07317 46.4874 9.41982 46.4999 9.77005V19.27H20.4999C-4.07008 20.27 -4.06008 55.27 20.4999 56.27H30.6599C31.1904 56.27 31.6991 56.0593 32.0741 55.6843C32.4492 55.3092 32.6599 54.8005 32.6599 54.27C32.6599 53.7396 32.4492 53.2309 32.0741 52.8558C31.6991 52.4808 31.1904 52.27 30.6599 52.27H20.5199C1.25992 51.48 1.25992 24.02 20.5199 23.27H46.5199V32.77C46.5196 33.1652 46.6364 33.5517 46.8555 33.8805C47.0746 34.2094 47.3862 34.466 47.7511 34.6179C48.1159 34.7699 48.5176 34.8103 48.9053 34.7341C49.2931 34.658 49.6496 34.4687 49.9299 34.19L61.4299 22.68C61.6191 22.4925 61.7689 22.269 61.8705 22.0227C61.9722 21.7764 62.0236 21.5123 62.0217 21.2458C62.0198 20.9794 61.9648 20.716 61.8597 20.4712C61.7546 20.2264 61.6017 20.005 61.4099 19.82Z" fill="black"/>
</svg>
