<?xml version="1.0" encoding="UTF-8" standalone="no"?> <svg width="64" height="64" viewBox="0 0 64 64" fill="none" xmlns="http://www.w3.org/2000/svg">
<path d="M43.4799 19.2301H17.4799V9.7301C17.4802 9.33491 17.3634 8.94849 17.1443 8.6196C16.9252 8.29072 16.6136 8.03412 16.2487 7.8822C15.8839 7.73028 15.4823 7.68985 15.0945 7.766C14.7067 7.84216 14.3502 8.03149 14.0699 8.3101L2.58989 19.8201C2.21738 20.1948 2.0083 20.7017 2.0083 21.2301C2.0083 21.7585 2.21738 22.2654 2.58989 22.6401L14.0899 34.1501C14.3702 34.4287 14.7267 34.618 15.1145 34.6942C15.5023 34.7704 15.9039 34.7299 16.2687 34.578C16.6336 34.4261 16.9452 34.1695 17.1643 33.8406C17.3834 33.5117 17.5002 33.1253 17.4999 32.7301V23.2301H43.4999C62.7599 24.0301 62.7599 51.4801 43.4999 52.2301H33.3399C32.8095 52.2301 32.3007 52.4408 31.9257 52.8159C31.5506 53.191 31.3399 53.6997 31.3399 54.2301C31.3399 54.7605 31.5506 55.2692 31.9257 55.6443C32.3007 56.0194 32.8095 56.2301 33.3399 56.2301H43.4799C68.0499 55.2601 67.9999 20.2401 43.4799 19.2301Z" fill="black"/>
</svg>
